<?xml version="1.0" encoding="utf-8"?>
<!-- Generator: Adobe Illustrator 23.0.0, SVG Export Plug-In . SVG Version: 6.00 Build 0)  -->
<svg version="1.1" id="图层_1" xmlns="http://www.w3.org/2000/svg" xmlns:xlink="http://www.w3.org/1999/xlink" x="0px" y="0px"
	 viewBox="0 0 200 200" style="enable-background:new 0 0 200 200;" xml:space="preserve">
<style type="text/css">
	.st0{fill:#31BAE8;}
</style>
<path class="st0" d="M171.4,127c-1-0.4-18.1-7.9-37.3-11.9c9.9-6.3,15.9-17.2,15.9-28.9V65.6c0-19-15.4-34.4-34.3-34.4
	c-9.8,0-19.2,4.3-25.7,11.7c-5.6,6.3-8.6,14.3-8.6,22.7v20.5c0,11.5,5.7,21.8,14.5,28c-21.1,3.6-41.2,12.4-42.1,12.8
	c-5.7,2.3-10,8.7-10,14.9v24.7h0.1c0.8,6.4,6.3,11.1,12.7,11.1h111.9c5.6,0,10.6-3.7,12.5-9.1l0.3-1v-25.7
	C181.2,135.6,176.9,129.2,171.4,127"/>
<path class="st0" d="M63,112.9c6.8-2.1,10.1-3.3,10.1-3.3s4.4-2,3.3-5.9c-2.7-5.2-4.7-9.3-4.7-24.5V59.4c0,0,1.2-9.6,4.9-10.5
	c0.3-0.3,0.3-0.8,0.2-1.3c-1-2.3-3.2-3.8-5.7-3.8c-14.3,0-25.9,11.6-25.9,25.9v16.5c0,6.4,2.4,12.2,6.3,16.7
	c-12.3,3.8-23,9.7-24.9,10.8c-4.5,2.1-7.7,7.2-7.7,12.2v17.9c0,3.5,2.8,6.3,6.3,6.3c3.2,0,5.8-2.4,6.1-5.6c0-0.2,0.1-0.4,0.1-0.7
	V141c0.5-5.9,2.7-16.7,11.9-21.7c1.4-0.6,2.9-1.2,4.4-1.8C52.7,116,57.9,114.5,63,112.9"/>
</svg>
