<?xml version="1.0" encoding="utf-8"?>
<!-- Generator: Adobe Illustrator 23.0.0, SVG Export Plug-In . SVG Version: 6.00 Build 0)  -->
<svg version="1.1" id="图层_1" xmlns="http://www.w3.org/2000/svg" xmlns:xlink="http://www.w3.org/1999/xlink" x="0px" y="0px"
	 viewBox="0 0 200 200" style="enable-background:new 0 0 200 200;" xml:space="preserve">
<style type="text/css">
	.st0{fill:#31BAE8;}
</style>
<path class="st0" d="M175,87.5h-25c-3.5,0-6.3,2.8-6.3,6.3s2.8,6.3,6.3,6.3h25c3.5,0,6.3-2.8,6.3-6.3S178.5,87.5,175,87.5 M175,62.5
	h-25c-3.5,0-6.3,2.8-6.3,6.3s2.8,6.3,6.3,6.3h25c3.5,0,6.3-2.8,6.3-6.3S178.5,62.5,175,62.5 M150,50h25c3.5,0,6.3-2.8,6.3-6.3
	s-2.8-6.3-6.3-6.3h-25c-3.5,0-6.3,2.8-6.3,6.3S146.5,50,150,50"/>
<path class="st0" d="M152.7,125c-1-0.4-19-8.3-38.8-12.3c2.3-1.9,4.3-4.1,6.1-6.5c4.3-5.8,6.6-12.9,6.6-20.2V65.6
	c0-10.9-5.2-21.2-14.1-27.7c-5.9-4.4-13-6.7-20.3-6.7c-18.9,0-34.3,15.4-34.3,34.4v20.5c0,11,5.3,20.9,13.4,27.2
	c-18.8,4.1-35.4,11.3-36.2,11.7c-5.7,2.3-10,8.7-10,14.9v25.7l0.3,1c1.9,5.4,6.9,9.1,12.5,9.1h111.9c6.5,0,11.9-4.9,12.7-11.1
	l0.1-24.7c0-3-1-6-2.7-8.6C158.1,128.5,155.5,126.2,152.7,125"/>
</svg>
