<?xml version="1.0" encoding="utf-8"?>
<!-- Generator: Adobe Illustrator 23.0.0, SVG Export Plug-In . SVG Version: 6.00 Build 0)  -->
<svg version="1.1" id="图层_1" xmlns="http://www.w3.org/2000/svg" xmlns:xlink="http://www.w3.org/1999/xlink" x="0px" y="0px"
	 viewBox="0 0 200 200" style="enable-background:new 0 0 200 200;" xml:space="preserve">
<style type="text/css">
	.st0{fill:#FFFFFF;}
</style>
<path class="st0" d="M0,45.5h200V200H0V45.5z M18.2,63.6v118.2h163.6V63.6H18.2z M45.5,136.4v-27.3H18.2V90.9h27.3V18.2H18.2v163.6
	h27.3v-27.3H18.2v-18.2H45.5L45.5,136.4z M90.9,136.4v-27.3H63.6v27.3H90.9z M90.9,154.5H63.6v27.3h27.3V154.5z M109.1,154.5V200H0
	V0h109.1v90.9h18.2v18.2h-18.2v27.3h18.2v18.2H109.1z M90.9,90.9V18.2H63.6v72.7C63.6,90.9,90.9,90.9,90.9,90.9z M145.5,90.9h18.2
	v18.2h-18.2L145.5,90.9L145.5,90.9z M145.5,136.4h18.2v18.2h-18.2L145.5,136.4L145.5,136.4z"/>
</svg>
