<?xml version="1.0" encoding="utf-8"?>
<!-- Generator: Adobe Illustrator 23.0.0, SVG Export Plug-In . SVG Version: 6.00 Build 0)  -->
<svg version="1.1" id="图层_1" xmlns="http://www.w3.org/2000/svg" xmlns:xlink="http://www.w3.org/1999/xlink" x="0px" y="0px"
	 viewBox="0 0 200 200" style="enable-background:new 0 0 200 200;" xml:space="preserve">
<style type="text/css">
	.st0{fill:#FFFFFF;}
</style>
<path class="st0" d="M35.9,119.4c4.2-12,17.4-18.3,29.4-14s18.3,17.4,14,29.4c-4.2,12-17.4,18.3-29.4,14c-6.6-2.3-11.7-7.5-14-14
	H22.7c13.2,29.4,42.8,49.9,77.1,49.9c41.2,0,75.8-29.6,83.1-69.1H84.5V17.1C45,24.3,15.4,59,15.4,100.2c0,6.6,0.8,13,2.2,19.2H35.9z
	 M200,100.2l-0.7,8.3C195.1,160,151.9,200,99.8,200C44.7,200,0,155.3,0,100.2c0-52,40-95.2,91.5-99.5L99.8,0v100.2H200z M57.6,134.7
	c4.2,0.1,7.8-3.3,7.9-7.5c0.1-4.2-3.3-7.8-7.5-7.9c-0.1,0-0.2,0-0.3,0c-4.2,0.1-7.6,3.6-7.5,7.9C50.2,131.3,53.5,134.6,57.6,134.7z
	 M124.8,3.5c35.1,9,62.7,36.6,71.7,71.7l2.5,9.6h-83.8V1L124.8,3.5z M130.5,69.5h48c-8.6-22-26-39.4-48-48V69.5z"/>
</svg>
