<?xml version="1.0" encoding="utf-8"?>
<!-- Generator: Adobe Illustrator 23.0.0, SVG Export Plug-In . SVG Version: 6.00 Build 0)  -->
<svg version="1.1" id="图层_1" xmlns="http://www.w3.org/2000/svg" xmlns:xlink="http://www.w3.org/1999/xlink" x="0px" y="0px"
	 viewBox="0 0 200 200" style="enable-background:new 0 0 200 200;" xml:space="preserve">
<style type="text/css">
	.st0{fill:#FFFFFF;}
</style>
<path class="st0" d="M153.8,15.4h15.4V200H30.8V15.4h15.4V0h15.4v15.4h15.4V0h15.4v15.4h15.4V0h15.4v15.4h15.4V0h15.4V15.4z
	 M46.2,69.2v115.4h107.7V69.2H46.2z M46.2,30.8v23.1h107.7V30.8H46.2z M61.5,84.6h15.4V100H61.5V84.6z M84.6,84.6h53.8V100H84.6
	V84.6z M61.5,115.4h15.4v15.4H61.5V115.4z M84.6,115.4h53.8v15.4H84.6V115.4z M61.5,146.2h15.4v15.4H61.5V146.2z M84.6,146.2h38.5
	v15.4H84.6V146.2z"/>
</svg>
